<svg aria-roledescription="er" viewBox="0 0 536.8202514648438 788" style="max-width: 536.82px; background-color: white;" xmlns:xlink="http://www.w3.org/1999/xlink" xmlns="http://www.w3.org/2000/svg" width="100%" id="mermaid-0"><style>#mermaid-0{font-family:"trebuchet ms",verdana,arial,sans-serif;font-size:16px;fill:#000000;}#mermaid-0 .error-icon{fill:#552222;}#mermaid-0 .error-text{fill:#552222;stroke:#552222;}#mermaid-0 .edge-thickness-normal{stroke-width:2px;}#mermaid-0 .edge-thickness-thick{stroke-width:3.5px;}#mermaid-0 .edge-pattern-solid{stroke-dasharray:0;}#mermaid-0 .edge-pattern-dashed{stroke-dasharray:3;}#mermaid-0 .edge-pattern-dotted{stroke-dasharray:2;}#mermaid-0 .marker{fill:#000000;stroke:#000000;}#mermaid-0 .marker.cross{stroke:#000000;}#mermaid-0 svg{font-family:"trebuchet ms",verdana,arial,sans-serif;font-size:16px;}#mermaid-0 .entityBox{fill:#cde498;stroke:#13540c;}#mermaid-0 .attributeBoxOdd{fill:#ffffff;stroke:#13540c;}#mermaid-0 .attributeBoxEven{fill:#f2f2f2;stroke:#13540c;}#mermaid-0 .relationshipLabelBox{fill:hsl(78.1578947368, 58.4615384615%, 84.5098039216%);opacity:0.7;background-color:hsl(78.1578947368, 58.4615384615%, 84.5098039216%);}#mermaid-0 .relationshipLabelBox rect{opacity:0.5;}#mermaid-0 .relationshipLine{stroke:#000000;}#mermaid-0 .entityTitleText{text-anchor:middle;font-size:18px;fill:#000000;}#mermaid-0 :root{--mermaid-font-family:"trebuchet ms",verdana,arial,sans-serif;}</style><g/><defs><marker orient="auto" markerHeight="18" markerWidth="18" refY="9" refX="0" id="ONLY_ONE_START"><path d="M9,0 L9,18 M15,0 L15,18" fill="none" stroke="gray"/></marker></defs><defs><marker orient="auto" markerHeight="18" markerWidth="18" refY="9" refX="18" id="ONLY_ONE_END"><path d="M3,0 L3,18 M9,0 L9,18" fill="none" stroke="gray"/></marker></defs><defs><marker orient="auto" markerHeight="18" markerWidth="30" refY="9" refX="0" id="ZERO_OR_ONE_START"><circle r="6" cy="9" cx="21" fill="white" stroke="gray"/><path d="M9,0 L9,18" fill="none" stroke="gray"/></marker></defs><defs><marker orient="auto" markerHeight="18" markerWidth="30" refY="9" refX="30" id="ZERO_OR_ONE_END"><circle r="6" cy="9" cx="9" fill="white" stroke="gray"/><path d="M21,0 L21,18" fill="none" stroke="gray"/></marker></defs><defs><marker orient="auto" markerHeight="36" markerWidth="45" refY="18" refX="18" id="ONE_OR_MORE_START"><path d="M0,18 Q 18,0 36,18 Q 18,36 0,18 M42,9 L42,27" fill="none" stroke="gray"/></marker></defs><defs><marker orient="auto" markerHeight="36" markerWidth="45" refY="18" refX="27" id="ONE_OR_MORE_END"><path d="M3,9 L3,27 M9,18 Q27,0 45,18 Q27,36 9,18" fill="none" stroke="gray"/></marker></defs><defs><marker orient="auto" markerHeight="36" markerWidth="57" refY="18" refX="18" id="ZERO_OR_MORE_START"><circle r="6" cy="18" cx="48" fill="white" stroke="gray"/><path d="M0,18 Q18,0 36,18 Q18,36 0,18" fill="none" stroke="gray"/></marker></defs><defs><marker orient="auto" markerHeight="36" markerWidth="57" refY="18" refX="39" id="ZERO_OR_MORE_END"><circle r="6" cy="18" cx="9" fill="white" stroke="gray"/><path d="M21,18 Q39,0 57,18 Q39,36 21,18" fill="none" stroke="gray"/></marker></defs><path style="stroke: gray; fill: none;" marker-start="url(#ZERO_OR_MORE_START)" marker-end="url(#ZERO_OR_ONE_END)" d="M83.67185974121094,556L83.67185974121094,564.3333333333334C83.67185974121094,572.6666666666666,83.67185974121094,589.3333333333334,90.1055020266359,606C96.53914431206086,622.6666666666666,109.40642888291076,639.3333333333334,115.84007116833573,647.6666666666666L122.27371345376068,656" class="er relationshipLine"/><path style="stroke: gray; fill: none;" marker-start="url(#ZERO_OR_MORE_START)" marker-end="url(#ZERO_OR_ONE_END)" d="M183.26464231958929,311L193.9444885133947,324.8333333333333C204.62433470720012,338.6666666666667,225.984027094811,366.3333333333333,236.66387328861643,397.8333333333333C247.34371948242188,429.3333333333333,247.34371948242188,464.6666666666667,247.34371948242188,500C247.34371948242188,535.3333333333334,247.34371948242188,570.6666666666666,240.91007719699692,596.6666666666666C234.47643491157194,622.6666666666666,221.60915034072204,639.3333333333334,215.1755080552971,647.6666666666666L208.74186576987213,656" class="er relationshipLine"/><path style="stroke: gray; fill: none;" marker-start="url(#ZERO_OR_MORE_START)" marker-end="url(#ONLY_ONE_END)" d="M147.75093690404353,311L137.0710907102381,324.8333333333333C126.39124451643266,338.6666666666667,105.03155212882182,366.3333333333333,94.35170593501637,388.5C83.67185974121094,410.6666666666667,83.67185974121094,427.3333333333333,83.67185974121094,435.6666666666667L83.67185974121094,444" class="er relationshipLine"/><path style="stroke: gray; fill: none;" marker-start="url(#ZERO_OR_MORE_START)" marker-end="url(#ONLY_ONE_END)" d="M224.62482790677052,132L214.77198819094482,140.33333333333334C204.91914847511916,148.66666666666666,185.21346904346777,165.33333333333334,175.36062932764207,187.5C165.5077896118164,209.66666666666666,165.5077896118164,237.33333333333334,165.5077896118164,251.16666666666666L165.5077896118164,265" class="er relationshipLine"/><path style="stroke: gray; fill: none;" marker-start="url(#ZERO_OR_MORE_START)" marker-end="url(#ONLY_ONE_END)" d="M357.04699368746776,132L366.8998334032935,140.33333333333334C376.75267311911915,148.66666666666666,396.45835255077054,165.33333333333334,406.3111922665962,182C416.1640319824219,198.66666666666666,416.1640319824219,215.33333333333334,416.1640319824219,223.66666666666666L416.1640319824219,232" class="er relationshipLine"/><g transform="translate(20,444 )" id="entity-Pool-27b8ef89-7304-4cb1-ba4c-1a4c84cbc078"><rect height="112" width="127.34371948242188" y="0" x="0" class="er entityBox"/><text style="dominant-baseline: middle; text-anchor: middle; font-size: 12px;" transform="translate(63.67185974121094,12)" y="0" x="0" id="text-entity-Pool-27b8ef89-7304-4cb1-ba4c-1a4c84cbc078" class="er entityLabel">Pool</text><rect height="22" width="54.095550537109375" y="24" x="0" class="er attributeBoxOdd"/><text style="dominant-baseline: middle; font-size: 10.2px;" transform="translate(5,35)" y="0" x="0" id="text-entity-Pool-27b8ef89-7304-4cb1-ba4c-1a4c84cbc078-attr-1-type" class="er entityLabel">String</text><rect height="22" width="50.56048583984375" y="24" x="54.095550537109375" class="er attributeBoxOdd"/><text style="dominant-baseline: middle; font-size: 10.2px;" transform="translate(59.095550537109375,35)" y="0" x="0" id="text-entity-Pool-27b8ef89-7304-4cb1-ba4c-1a4c84cbc078-attr-1-name" class="er entityLabel">id</text><rect height="22" width="22.68768310546875" y="24" x="104.65603637695312" class="er attributeBoxOdd"/><text style="dominant-baseline: middle; font-size: 10.2px;" transform="translate(109.65603637695312,35)" y="0" x="0" id="text-entity-Pool-27b8ef89-7304-4cb1-ba4c-1a4c84cbc078-attr-1-key" class="er entityLabel">PK</text><rect height="22" width="54.095550537109375" y="46" x="0" class="er attributeBoxEven"/><text style="dominant-baseline: middle; font-size: 10.2px;" transform="translate(5,57)" y="0" x="0" id="text-entity-Pool-27b8ef89-7304-4cb1-ba4c-1a4c84cbc078-attr-2-type" class="er entityLabel">String</text><rect height="22" width="50.56048583984375" y="46" x="54.095550537109375" class="er attributeBoxEven"/><text style="dominant-baseline: middle; font-size: 10.2px;" transform="translate(59.095550537109375,57)" y="0" x="0" id="text-entity-Pool-27b8ef89-7304-4cb1-ba4c-1a4c84cbc078-attr-2-name" class="er entityLabel">title</text><rect height="22" width="22.68768310546875" y="46" x="104.65603637695312" class="er attributeBoxEven"/><text style="dominant-baseline: middle; font-size: 10.2px;" transform="translate(109.65603637695312,57)" y="0" x="0" id="text-entity-Pool-27b8ef89-7304-4cb1-ba4c-1a4c84cbc078-attr-2-key" class="er entityLabel"/><rect height="22" width="54.095550537109375" y="68" x="0" class="er attributeBoxOdd"/><text style="dominant-baseline: middle; font-size: 10.2px;" transform="translate(5,79)" y="0" x="0" id="text-entity-Pool-27b8ef89-7304-4cb1-ba4c-1a4c84cbc078-attr-3-type" class="er entityLabel">String</text><rect height="22" width="50.56048583984375" y="68" x="54.095550537109375" class="er attributeBoxOdd"/><text style="dominant-baseline: middle; font-size: 10.2px;" transform="translate(59.095550537109375,79)" y="0" x="0" id="text-entity-Pool-27b8ef89-7304-4cb1-ba4c-1a4c84cbc078-attr-3-name" class="er entityLabel">code</text><rect height="22" width="22.68768310546875" y="68" x="104.65603637695312" class="er attributeBoxOdd"/><text style="dominant-baseline: middle; font-size: 10.2px;" transform="translate(109.65603637695312,79)" y="0" x="0" id="text-entity-Pool-27b8ef89-7304-4cb1-ba4c-1a4c84cbc078-attr-3-key" class="er entityLabel"/><rect height="22" width="54.095550537109375" y="90" x="0" class="er attributeBoxEven"/><text style="dominant-baseline: middle; font-size: 10.2px;" transform="translate(5,101)" y="0" x="0" id="text-entity-Pool-27b8ef89-7304-4cb1-ba4c-1a4c84cbc078-attr-4-type" class="er entityLabel">DateTime</text><rect height="22" width="50.56048583984375" y="90" x="54.095550537109375" class="er attributeBoxEven"/><text style="dominant-baseline: middle; font-size: 10.2px;" transform="translate(59.095550537109375,101)" y="0" x="0" id="text-entity-Pool-27b8ef89-7304-4cb1-ba4c-1a4c84cbc078-attr-4-name" class="er entityLabel">createAt</text><rect height="22" width="22.68768310546875" y="90" x="104.65603637695312" class="er attributeBoxEven"/><text style="dominant-baseline: middle; font-size: 10.2px;" transform="translate(109.65603637695312,101)" y="0" x="0" id="text-entity-Pool-27b8ef89-7304-4cb1-ba4c-1a4c84cbc078-attr-4-key" class="er entityLabel"/></g><g transform="translate(115.5077896118164,265 )" id="entity-Participant-00eeddf1-07da-4fea-a3bb-eb4ed2dbdcfe"><rect height="46" width="100" y="0" x="0" class="er entityBox"/><text style="dominant-baseline: middle; text-anchor: middle; font-size: 12px;" transform="translate(50,12)" y="0" x="0" id="text-entity-Participant-00eeddf1-07da-4fea-a3bb-eb4ed2dbdcfe" class="er entityLabel">Participant</text><rect height="22" width="44.39861551920573" y="24" x="0" class="er attributeBoxOdd"/><text style="dominant-baseline: middle; font-size: 10.2px;" transform="translate(5,35)" y="0" x="0" id="text-entity-Participant-00eeddf1-07da-4fea-a3bb-eb4ed2dbdcfe-attr-1-type" class="er entityLabel">String</text><rect height="22" width="25.911142985026043" y="24" x="44.39861551920573" class="er attributeBoxOdd"/><text style="dominant-baseline: middle; font-size: 10.2px;" transform="translate(49.39861551920573,35)" y="0" x="0" id="text-entity-Participant-00eeddf1-07da-4fea-a3bb-eb4ed2dbdcfe-attr-1-name" class="er entityLabel">id</text><rect height="22" width="29.69024149576823" y="24" x="70.30975850423177" class="er attributeBoxOdd"/><text style="dominant-baseline: middle; font-size: 10.2px;" transform="translate(75.30975850423177,35)" y="0" x="0" id="text-entity-Participant-00eeddf1-07da-4fea-a3bb-eb4ed2dbdcfe-attr-1-key" class="er entityLabel">PK</text></g><g transform="translate(85.52371215820312,656 )" id="entity-User-5f8de952-1ade-4fe6-9fc7-7c5cb2983c41"><rect height="112" width="159.96815490722656" y="0" x="0" class="er entityBox"/><text style="dominant-baseline: middle; text-anchor: middle; font-size: 12px;" transform="translate(79.98407745361328,12)" y="0" x="0" id="text-entity-User-5f8de952-1ade-4fe6-9fc7-7c5cb2983c41" class="er entityLabel">User</text><rect height="22" width="37.39605712890625" y="24" x="0" class="er attributeBoxOdd"/><text style="dominant-baseline: middle; font-size: 10.2px;" transform="translate(5,35)" y="0" x="0" id="text-entity-User-5f8de952-1ade-4fe6-9fc7-7c5cb2983c41-attr-1-type" class="er entityLabel">String</text><rect height="22" width="52.671875" y="24" x="37.39605712890625" class="er attributeBoxOdd"/><text style="dominant-baseline: middle; font-size: 10.2px;" transform="translate(42.39605712890625,35)" y="0" x="0" id="text-entity-User-5f8de952-1ade-4fe6-9fc7-7c5cb2983c41-attr-1-name" class="er entityLabel">id</text><rect height="22" width="22.68768310546875" y="24" x="90.06793212890625" class="er attributeBoxOdd"/><text style="dominant-baseline: middle; font-size: 10.2px;" transform="translate(95.06793212890625,35)" y="0" x="0" id="text-entity-User-5f8de952-1ade-4fe6-9fc7-7c5cb2983c41-attr-1-key" class="er entityLabel">PK</text><rect height="22" width="47.21253967285156" y="24" x="112.755615234375" class="er attributeBoxOdd"/><text style="dominant-baseline: middle; font-size: 10.2px;" transform="translate(117.755615234375,35)" y="0" x="0" id="text-entity-User-5f8de952-1ade-4fe6-9fc7-7c5cb2983c41-attr-1-comment" class="er entityLabel"/><rect height="22" width="37.39605712890625" y="46" x="0" class="er attributeBoxEven"/><text style="dominant-baseline: middle; font-size: 10.2px;" transform="translate(5,57)" y="0" x="0" id="text-entity-User-5f8de952-1ade-4fe6-9fc7-7c5cb2983c41-attr-2-type" class="er entityLabel">String</text><rect height="22" width="52.671875" y="46" x="37.39605712890625" class="er attributeBoxEven"/><text style="dominant-baseline: middle; font-size: 10.2px;" transform="translate(42.39605712890625,57)" y="0" x="0" id="text-entity-User-5f8de952-1ade-4fe6-9fc7-7c5cb2983c41-attr-2-name" class="er entityLabel">name</text><rect height="22" width="22.68768310546875" y="46" x="90.06793212890625" class="er attributeBoxEven"/><text style="dominant-baseline: middle; font-size: 10.2px;" transform="translate(95.06793212890625,57)" y="0" x="0" id="text-entity-User-5f8de952-1ade-4fe6-9fc7-7c5cb2983c41-attr-2-key" class="er entityLabel"/><rect height="22" width="47.21253967285156" y="46" x="112.755615234375" class="er attributeBoxEven"/><text style="dominant-baseline: middle; font-size: 10.2px;" transform="translate(117.755615234375,57)" y="0" x="0" id="text-entity-User-5f8de952-1ade-4fe6-9fc7-7c5cb2983c41-attr-2-comment" class="er entityLabel"/><rect height="22" width="37.39605712890625" y="68" x="0" class="er attributeBoxOdd"/><text style="dominant-baseline: middle; font-size: 10.2px;" transform="translate(5,79)" y="0" x="0" id="text-entity-User-5f8de952-1ade-4fe6-9fc7-7c5cb2983c41-attr-3-type" class="er entityLabel">String</text><rect height="22" width="52.671875" y="68" x="37.39605712890625" class="er attributeBoxOdd"/><text style="dominant-baseline: middle; font-size: 10.2px;" transform="translate(42.39605712890625,79)" y="0" x="0" id="text-entity-User-5f8de952-1ade-4fe6-9fc7-7c5cb2983c41-attr-3-name" class="er entityLabel">email</text><rect height="22" width="22.68768310546875" y="68" x="90.06793212890625" class="er attributeBoxOdd"/><text style="dominant-baseline: middle; font-size: 10.2px;" transform="translate(95.06793212890625,79)" y="0" x="0" id="text-entity-User-5f8de952-1ade-4fe6-9fc7-7c5cb2983c41-attr-3-key" class="er entityLabel"/><rect height="22" width="47.21253967285156" y="68" x="112.755615234375" class="er attributeBoxOdd"/><text style="dominant-baseline: middle; font-size: 10.2px;" transform="translate(117.755615234375,79)" y="0" x="0" id="text-entity-User-5f8de952-1ade-4fe6-9fc7-7c5cb2983c41-attr-3-comment" class="er entityLabel"/><rect height="22" width="37.39605712890625" y="90" x="0" class="er attributeBoxEven"/><text style="dominant-baseline: middle; font-size: 10.2px;" transform="translate(5,101)" y="0" x="0" id="text-entity-User-5f8de952-1ade-4fe6-9fc7-7c5cb2983c41-attr-4-type" class="er entityLabel">String</text><rect height="22" width="52.671875" y="90" x="37.39605712890625" class="er attributeBoxEven"/><text style="dominant-baseline: middle; font-size: 10.2px;" transform="translate(42.39605712890625,101)" y="0" x="0" id="text-entity-User-5f8de952-1ade-4fe6-9fc7-7c5cb2983c41-attr-4-name" class="er entityLabel">avatarUrl</text><rect height="22" width="22.68768310546875" y="90" x="90.06793212890625" class="er attributeBoxEven"/><text style="dominant-baseline: middle; font-size: 10.2px;" transform="translate(95.06793212890625,101)" y="0" x="0" id="text-entity-User-5f8de952-1ade-4fe6-9fc7-7c5cb2983c41-attr-4-key" class="er entityLabel"/><rect height="22" width="47.21253967285156" y="90" x="112.755615234375" class="er attributeBoxEven"/><text style="dominant-baseline: middle; font-size: 10.2px;" transform="translate(117.755615234375,101)" y="0" x="0" id="text-entity-User-5f8de952-1ade-4fe6-9fc7-7c5cb2983c41-attr-4-comment" class="er entityLabel">nullable</text></g><g transform="translate(315.5077896118164,232 )" id="entity-Game-624a0251-c3ff-431a-a449-527e022df0b4"><rect height="112" width="201.31248474121094" y="0" x="0" class="er entityBox"/><text style="dominant-baseline: middle; text-anchor: middle; font-size: 12px;" transform="translate(100.65624237060547,12)" y="0" x="0" id="text-entity-Game-624a0251-c3ff-431a-a449-527e022df0b4" class="er entityLabel">Game</text><rect height="22" width="54.095550537109375" y="24" x="0" class="er attributeBoxOdd"/><text style="dominant-baseline: middle; font-size: 10.2px;" transform="translate(5,35)" y="0" x="0" id="text-entity-Game-624a0251-c3ff-431a-a449-527e022df0b4-attr-1-type" class="er entityLabel">String</text><rect height="22" width="124.52925109863281" y="24" x="54.095550537109375" class="er attributeBoxOdd"/><text style="dominant-baseline: middle; font-size: 10.2px;" transform="translate(59.095550537109375,35)" y="0" x="0" id="text-entity-Game-624a0251-c3ff-431a-a449-527e022df0b4-attr-1-name" class="er entityLabel">id</text><rect height="22" width="22.68768310546875" y="24" x="178.6248016357422" class="er attributeBoxOdd"/><text style="dominant-baseline: middle; font-size: 10.2px;" transform="translate(183.6248016357422,35)" y="0" x="0" id="text-entity-Game-624a0251-c3ff-431a-a449-527e022df0b4-attr-1-key" class="er entityLabel">PK</text><rect height="22" width="54.095550537109375" y="46" x="0" class="er attributeBoxEven"/><text style="dominant-baseline: middle; font-size: 10.2px;" transform="translate(5,57)" y="0" x="0" id="text-entity-Game-624a0251-c3ff-431a-a449-527e022df0b4-attr-2-type" class="er entityLabel">DateTime</text><rect height="22" width="124.52925109863281" y="46" x="54.095550537109375" class="er attributeBoxEven"/><text style="dominant-baseline: middle; font-size: 10.2px;" transform="translate(59.095550537109375,57)" y="0" x="0" id="text-entity-Game-624a0251-c3ff-431a-a449-527e022df0b4-attr-2-name" class="er entityLabel">date</text><rect height="22" width="22.68768310546875" y="46" x="178.6248016357422" class="er attributeBoxEven"/><text style="dominant-baseline: middle; font-size: 10.2px;" transform="translate(183.6248016357422,57)" y="0" x="0" id="text-entity-Game-624a0251-c3ff-431a-a449-527e022df0b4-attr-2-key" class="er entityLabel"/><rect height="22" width="54.095550537109375" y="68" x="0" class="er attributeBoxOdd"/><text style="dominant-baseline: middle; font-size: 10.2px;" transform="translate(5,79)" y="0" x="0" id="text-entity-Game-624a0251-c3ff-431a-a449-527e022df0b4-attr-3-type" class="er entityLabel">String</text><rect height="22" width="124.52925109863281" y="68" x="54.095550537109375" class="er attributeBoxOdd"/><text style="dominant-baseline: middle; font-size: 10.2px;" transform="translate(59.095550537109375,79)" y="0" x="0" id="text-entity-Game-624a0251-c3ff-431a-a449-527e022df0b4-attr-3-name" class="er entityLabel">firstTeamCountryCode</text><rect height="22" width="22.68768310546875" y="68" x="178.6248016357422" class="er attributeBoxOdd"/><text style="dominant-baseline: middle; font-size: 10.2px;" transform="translate(183.6248016357422,79)" y="0" x="0" id="text-entity-Game-624a0251-c3ff-431a-a449-527e022df0b4-attr-3-key" class="er entityLabel"/><rect height="22" width="54.095550537109375" y="90" x="0" class="er attributeBoxEven"/><text style="dominant-baseline: middle; font-size: 10.2px;" transform="translate(5,101)" y="0" x="0" id="text-entity-Game-624a0251-c3ff-431a-a449-527e022df0b4-attr-4-type" class="er entityLabel">String</text><rect height="22" width="124.52925109863281" y="90" x="54.095550537109375" class="er attributeBoxEven"/><text style="dominant-baseline: middle; font-size: 10.2px;" transform="translate(59.095550537109375,101)" y="0" x="0" id="text-entity-Game-624a0251-c3ff-431a-a449-527e022df0b4-attr-4-name" class="er entityLabel">secondTeamCountryCode</text><rect height="22" width="22.68768310546875" y="90" x="178.6248016357422" class="er attributeBoxEven"/><text style="dominant-baseline: middle; font-size: 10.2px;" transform="translate(183.6248016357422,101)" y="0" x="0" id="text-entity-Game-624a0251-c3ff-431a-a449-527e022df0b4-attr-4-key" class="er entityLabel"/></g><g transform="translate(205.58371353149414,20 )" id="entity-Guess-c1ee1f73-c7e8-4964-9b46-7c54c25870e2"><rect height="112" width="170.50439453125" y="0" x="0" class="er entityBox"/><text style="dominant-baseline: middle; text-anchor: middle; font-size: 12px;" transform="translate(85.252197265625,12)" y="0" x="0" id="text-entity-Guess-c1ee1f73-c7e8-4964-9b46-7c54c25870e2" class="er entityLabel">Guess</text><rect height="22" width="54.095550537109375" y="24" x="0" class="er attributeBoxOdd"/><text style="dominant-baseline: middle; font-size: 10.2px;" transform="translate(5,35)" y="0" x="0" id="text-entity-Guess-c1ee1f73-c7e8-4964-9b46-7c54c25870e2-attr-1-type" class="er entityLabel">String</text><rect height="22" width="93.72116088867188" y="24" x="54.095550537109375" class="er attributeBoxOdd"/><text style="dominant-baseline: middle; font-size: 10.2px;" transform="translate(59.095550537109375,35)" y="0" x="0" id="text-entity-Guess-c1ee1f73-c7e8-4964-9b46-7c54c25870e2-attr-1-name" class="er entityLabel">id</text><rect height="22" width="22.68768310546875" y="24" x="147.81671142578125" class="er attributeBoxOdd"/><text style="dominant-baseline: middle; font-size: 10.2px;" transform="translate(152.81671142578125,35)" y="0" x="0" id="text-entity-Guess-c1ee1f73-c7e8-4964-9b46-7c54c25870e2-attr-1-key" class="er entityLabel">PK</text><rect height="22" width="54.095550537109375" y="46" x="0" class="er attributeBoxEven"/><text style="dominant-baseline: middle; font-size: 10.2px;" transform="translate(5,57)" y="0" x="0" id="text-entity-Guess-c1ee1f73-c7e8-4964-9b46-7c54c25870e2-attr-2-type" class="er entityLabel">Int</text><rect height="22" width="93.72116088867188" y="46" x="54.095550537109375" class="er attributeBoxEven"/><text style="dominant-baseline: middle; font-size: 10.2px;" transform="translate(59.095550537109375,57)" y="0" x="0" id="text-entity-Guess-c1ee1f73-c7e8-4964-9b46-7c54c25870e2-attr-2-name" class="er entityLabel">firstTeamPoints</text><rect height="22" width="22.68768310546875" y="46" x="147.81671142578125" class="er attributeBoxEven"/><text style="dominant-baseline: middle; font-size: 10.2px;" transform="translate(152.81671142578125,57)" y="0" x="0" id="text-entity-Guess-c1ee1f73-c7e8-4964-9b46-7c54c25870e2-attr-2-key" class="er entityLabel"/><rect height="22" width="54.095550537109375" y="68" x="0" class="er attributeBoxOdd"/><text style="dominant-baseline: middle; font-size: 10.2px;" transform="translate(5,79)" y="0" x="0" id="text-entity-Guess-c1ee1f73-c7e8-4964-9b46-7c54c25870e2-attr-3-type" class="er entityLabel">Int</text><rect height="22" width="93.72116088867188" y="68" x="54.095550537109375" class="er attributeBoxOdd"/><text style="dominant-baseline: middle; font-size: 10.2px;" transform="translate(59.095550537109375,79)" y="0" x="0" id="text-entity-Guess-c1ee1f73-c7e8-4964-9b46-7c54c25870e2-attr-3-name" class="er entityLabel">secondTeamPoints</text><rect height="22" width="22.68768310546875" y="68" x="147.81671142578125" class="er attributeBoxOdd"/><text style="dominant-baseline: middle; font-size: 10.2px;" transform="translate(152.81671142578125,79)" y="0" x="0" id="text-entity-Guess-c1ee1f73-c7e8-4964-9b46-7c54c25870e2-attr-3-key" class="er entityLabel"/><rect height="22" width="54.095550537109375" y="90" x="0" class="er attributeBoxEven"/><text style="dominant-baseline: middle; font-size: 10.2px;" transform="translate(5,101)" y="0" x="0" id="text-entity-Guess-c1ee1f73-c7e8-4964-9b46-7c54c25870e2-attr-4-type" class="er entityLabel">DateTime</text><rect height="22" width="93.72116088867188" y="90" x="54.095550537109375" class="er attributeBoxEven"/><text style="dominant-baseline: middle; font-size: 10.2px;" transform="translate(59.095550537109375,101)" y="0" x="0" id="text-entity-Guess-c1ee1f73-c7e8-4964-9b46-7c54c25870e2-attr-4-name" class="er entityLabel">createdAt</text><rect height="22" width="22.68768310546875" y="90" x="147.81671142578125" class="er attributeBoxEven"/><text style="dominant-baseline: middle; font-size: 10.2px;" transform="translate(152.81671142578125,101)" y="0" x="0" id="text-entity-Guess-c1ee1f73-c7e8-4964-9b46-7c54c25870e2-attr-4-key" class="er entityLabel"/></g><rect height="14" width="34.470703125" y="603.1165161132812" x="74.58515167236328" class="er relationshipLabelBox"/><text style="text-anchor: middle; dominant-baseline: middle; font-size: 12px;" y="610.1165161132812" x="91.82050323486328" id="rel1" class="er relationshipLabel">owner</text><rect height="14" width="23.958984375" y="472.7759704589844" x="235.28948974609375" class="er relationshipLabelBox"/><text style="text-anchor: middle; dominant-baseline: middle; font-size: 12px;" y="479.7759704589844" x="247.26898193359375" id="rel2" class="er relationshipLabel">user</text><rect height="14" width="23.564453125" y="365.2702331542969" x="91.55540466308594" class="er relationshipLabelBox"/><text style="text-anchor: middle; dominant-baseline: middle; font-size: 12px;" y="372.2702331542969" x="103.33763122558594" id="rel3" class="er relationshipLabel">pool</text><rect height="14" width="59.744140625" y="182.2556915283203" x="144.73336791992188" class="er relationshipLabelBox"/><text style="text-anchor: middle; dominant-baseline: middle; font-size: 12px;" y="189.2556915283203" x="174.60543823242188" id="rel4" class="er relationshipLabel">participant</text><rect height="14" width="29.2890625" y="167.22166442871094" x="386.4034729003906" class="er relationshipLabelBox"/><text style="text-anchor: middle; dominant-baseline: middle; font-size: 12px;" y="174.22166442871094" x="401.0480041503906" id="rel5" class="er relationshipLabel">game</text></svg>